<svg xmlns="http://www.w3.org/2000/svg" xmlns:xlink="http://www.w3.org/1999/xlink" width="500pt" height="117pt" viewBox="0.00 0.00 500.29 116.90">
<g id="graph0" class="graph" transform="scale(1 1) rotate(0) translate(4 112.9)">
<title>Bus</title>
<polygon fill="white" stroke="none" points="-4,4 -4,-112.9 496.29,-112.9 496.29,4 -4,4"/>
<!-- Sources -->
<g id="node1" class="node">
<title>Sources</title>
<path fill="lightblue" stroke="black" d="M71.83,-63.83C71.83,-65.63 55.73,-67.1 35.91,-67.1 16.1,-67.1 0,-65.63 0,-63.83 0,-63.83 0,-34.37 0,-34.37 0,-32.57 16.1,-31.1 35.91,-31.1 55.73,-31.1 71.83,-32.57 71.83,-34.37 71.83,-34.37 71.83,-63.83 71.83,-63.83"/>
<path fill="none" stroke="black" d="M71.83,-63.83C71.83,-62.02 55.73,-60.55 35.91,-60.55 16.1,-60.55 0,-62.02 0,-63.83"/>
<text text-anchor="middle" x="35.91" y="-44.9" font-family="Verdana" font-size="14.00">Sources</text>
</g>
<!-- Sales_Mart -->
<g id="node2" class="node">
<title>Sales_Mart</title>
<path fill="lightblue" stroke="black" d="M227.54,-90.83C227.54,-92.63 206.46,-94.1 180.51,-94.1 154.56,-94.1 133.48,-92.63 133.48,-90.83 133.48,-90.83 133.48,-61.37 133.48,-61.37 133.48,-59.57 154.56,-58.1 180.51,-58.1 206.46,-58.1 227.54,-59.57 227.54,-61.37 227.54,-61.37 227.54,-90.83 227.54,-90.83"/>
<path fill="none" stroke="black" d="M227.54,-90.83C227.54,-89.02 206.46,-87.55 180.51,-87.55 154.56,-87.55 133.48,-89.02 133.48,-90.83"/>
<text text-anchor="middle" x="180.51" y="-71.9" font-family="Verdana" font-size="14.00">Sales_Mart</text>
</g>
<!-- Sources&#45;&gt;Sales_Mart -->
<g id="edge1" class="edge">
<title>Sources-&gt;Sales_Mart</title>
<path fill="none" stroke="black" d="M72.16,-55.77C87.25,-58.63 105.26,-62.04 122.18,-65.24"/>
<polygon fill="black" stroke="black" points="121.13,-68.61 131.61,-67.03 122.43,-61.73 121.13,-68.61"/>
<text text-anchor="middle" x="102.66" y="-67.61" font-family="Times,serif" font-size="14.00">ETL</text>
</g>
<!-- Mkt_Mart -->
<g id="node3" class="node">
<title>Mkt_Mart</title>
<path fill="lightblue" stroke="black" d="M221.61,-36.83C221.61,-38.63 203.19,-40.1 180.51,-40.1 157.83,-40.1 139.41,-38.63 139.41,-36.83 139.41,-36.83 139.41,-7.37 139.41,-7.37 139.41,-5.57 157.83,-4.1 180.51,-4.1 203.19,-4.1 221.61,-5.57 221.61,-7.37 221.61,-7.37 221.61,-36.83 221.61,-36.83"/>
<path fill="none" stroke="black" d="M221.61,-36.83C221.61,-35.02 203.19,-33.55 180.51,-33.55 157.83,-33.55 139.41,-35.02 139.41,-36.83"/>
<text text-anchor="middle" x="180.51" y="-17.9" font-family="Verdana" font-size="14.00">Mkt_Mart</text>
</g>
<!-- Sources&#45;&gt;Mkt_Mart -->
<g id="edge2" class="edge">
<title>Sources-&gt;Mkt_Mart</title>
<path fill="none" stroke="black" d="M72.19,-41.78C78.07,-40.6 84.12,-39.4 89.83,-38.3 102.2,-35.92 115.55,-33.45 128.08,-31.18"/>
<polygon fill="black" stroke="black" points="128.58,-34.65 137.81,-29.43 127.34,-27.76 128.58,-34.65"/>
<text text-anchor="middle" x="102.66" y="-42.5" font-family="Times,serif" font-size="14.00">ETL</text>
</g>
<!-- Conformed_Dim -->
<g id="node4" class="node">
<title>Conformed_Dim</title>
<polygon fill="none" stroke="black" stroke-dasharray="5,2" points="492.29,-108.9 312.93,-108.9 312.93,-67.3 492.29,-67.3 492.29,-108.9"/>
<text text-anchor="middle" x="402.61" y="-92.3" font-family="Verdana" font-size="14.00">Conformed Dimensions</text>
<text text-anchor="middle" x="402.61" y="-75.5" font-family="Verdana" font-size="14.00">(e.g., Customer, Date)</text>
</g>
<!-- Sales_Mart&#45;&gt;Conformed_Dim -->
<g id="edge3" class="edge">
<title>Sales_Mart-&gt;Conformed_Dim</title>
<path fill="none" stroke="black" stroke-dasharray="5,2" d="M239.31,-83.58C241.41,-83.77 243.49,-83.94 245.54,-84.1 263.56,-85.45 282.77,-86.37 301.34,-86.99"/>
<polygon fill="black" stroke="black" points="239.77,-80.11 229.47,-82.6 239.07,-87.08 239.77,-80.11"/>
<polygon fill="black" stroke="black" points="301.19,-90.49 311.29,-87.29 301.4,-83.49 301.19,-90.49"/>
</g>
<!-- Users -->
<g id="node5" class="node">
<title>Users</title>
<polygon fill="lightgreen" stroke="black" points="430.18,-39.1 375.03,-39.1 375.03,-3.1 430.18,-3.1 430.18,-39.1"/>
<text text-anchor="middle" x="402.61" y="-16.9" font-family="Verdana" font-size="14.00">Users</text>
</g>
<!-- Sales_Mart&#45;&gt;Users -->
<g id="edge5" class="edge">
<title>Sales_Mart-&gt;Users</title>
<path fill="none" stroke="black" d="M227.92,-64.5C268.26,-54.42 326,-39.99 363.64,-30.58"/>
<polygon fill="black" stroke="black" points="364.32,-34.02 373.17,-28.2 362.62,-27.23 364.32,-34.02"/>
<text text-anchor="middle" x="270.23" y="-64.05" font-family="Times,serif" font-size="14.00">BI Tools</text>
</g>
<!-- Mkt_Mart&#45;&gt;Conformed_Dim -->
<g id="edge4" class="edge">
<title>Mkt_Mart-&gt;Conformed_Dim</title>
<path fill="none" stroke="black" stroke-dasharray="5,2" d="M233.17,-31.78C252.69,-35.88 274.99,-41.11 294.93,-47.1 309.84,-51.58 325.63,-57.16 340.36,-62.76"/>
<polygon fill="black" stroke="black" points="234.02,-28.38 223.53,-29.8 232.62,-35.24 234.02,-28.38"/>
<polygon fill="black" stroke="black" points="338.87,-65.93 349.46,-66.27 341.39,-59.4 338.87,-65.93"/>
</g>
<!-- Mkt_Mart&#45;&gt;Users -->
<g id="edge6" class="edge">
<title>Mkt_Mart-&gt;Users</title>
<path fill="none" stroke="black" d="M222.07,-7.56C229.77,-5.37 237.83,-3.46 245.54,-2.3 285.79,3.78 332.13,-3.61 363.79,-10.83"/>
<polygon fill="black" stroke="black" points="362.74,-14.18 373.28,-13.11 364.37,-7.37 362.74,-14.18"/>
<text text-anchor="middle" x="270.23" y="-6.5" font-family="Times,serif" font-size="14.00">BI Tools</text>
</g>
</g>
</svg>